<svg width="159" height="42" viewBox="0 0 159 42" fill="none" xmlns="http://www.w3.org/2000/svg">
<path d="M7.37282 10.696V12H0.868816V0.535999H2.41282V10.696H7.37282ZM13.0897 10.768C13.5644 10.768 13.9884 10.688 14.3617 10.528C14.735 10.368 15.0497 10.144 15.3057 9.856C15.567 9.568 15.7644 9.224 15.8977 8.824C16.0364 8.424 16.1057 7.984 16.1057 7.504V0.535999H17.6497V7.504C17.6497 8.16533 17.543 8.77867 17.3297 9.344C17.1217 9.90933 16.8204 10.4 16.4257 10.816C16.0364 11.2267 15.559 11.5493 14.9937 11.784C14.4284 12.0187 13.7937 12.136 13.0897 12.136C12.3857 12.136 11.751 12.0187 11.1857 11.784C10.6204 11.5493 10.1404 11.2267 9.74569 10.816C9.35102 10.4 9.04702 9.90933 8.83369 9.344C8.62569 8.77867 8.52169 8.16533 8.52169 7.504V0.535999H10.0657V7.496C10.0657 7.976 10.1324 8.416 10.2657 8.816C10.4044 9.216 10.6017 9.56 10.8577 9.848C11.119 10.136 11.4364 10.3627 11.8097 10.528C12.1884 10.688 12.615 10.768 13.0897 10.768ZM29.1753 12H27.6393C27.522 12 27.4286 11.9707 27.3593 11.912C27.2953 11.848 27.242 11.7787 27.1993 11.704L24.1273 6.888C24.0846 7.016 24.0366 7.12533 23.9833 7.216L20.9913 11.704C20.938 11.7787 20.8793 11.848 20.8153 11.912C20.7566 11.9707 20.674 12 20.5673 12H19.1273L23.0713 6.112L19.2873 0.535999H20.8313C20.9433 0.535999 21.026 0.554666 21.0793 0.591999C21.1326 0.629333 21.1806 0.682666 21.2233 0.752L24.2153 5.344C24.2526 5.232 24.3086 5.10933 24.3833 4.976L27.2073 0.783999C27.25 0.709333 27.3006 0.650667 27.3593 0.608C27.418 0.559999 27.4873 0.535999 27.5673 0.535999H29.0473L25.2473 6.04L29.1753 12ZM32.3739 12H30.8219V0.535999H32.3739V12ZM38.4823 6.088C38.9303 6.088 39.325 6.03467 39.6663 5.928C40.013 5.816 40.301 5.66133 40.5303 5.464C40.765 5.26133 40.941 5.02133 41.0583 4.744C41.1756 4.46667 41.2343 4.16 41.2343 3.824C41.2343 3.14133 41.0103 2.62667 40.5623 2.28C40.1143 1.93333 39.4423 1.76 38.5463 1.76H36.8503V6.088H38.4823ZM43.7783 12H42.4023C42.1196 12 41.9116 11.8907 41.7783 11.672L38.8023 7.576C38.7116 7.448 38.613 7.35733 38.5063 7.304C38.405 7.24533 38.245 7.216 38.0263 7.216H36.8503V12H35.3063V0.535999H38.5463C39.2716 0.535999 39.8983 0.610666 40.4263 0.759999C40.9543 0.904 41.389 1.11467 41.7303 1.392C42.077 1.66933 42.333 2.00533 42.4983 2.4C42.6636 2.78933 42.7463 3.22667 42.7463 3.712C42.7463 4.11733 42.6823 4.496 42.5543 4.848C42.4263 5.2 42.2396 5.51733 41.9943 5.8C41.7543 6.07733 41.4583 6.31467 41.1063 6.512C40.7596 6.70933 40.365 6.85867 39.9223 6.96C40.1196 7.072 40.2903 7.23467 40.4343 7.448L43.7783 12ZM55.8202 6.272C55.8202 7.13067 55.6842 7.92 55.4122 8.64C55.1402 9.35467 54.7562 9.97067 54.2602 10.488C53.7642 11.0053 53.1669 11.408 52.4682 11.696C51.7749 11.9787 51.0069 12.12 50.1642 12.12C49.3215 12.12 48.5535 11.9787 47.8602 11.696C47.1669 11.408 46.5722 11.0053 46.0762 10.488C45.5802 9.97067 45.1962 9.35467 44.9242 8.64C44.6522 7.92 44.5162 7.13067 44.5162 6.272C44.5162 5.41333 44.6522 4.62667 44.9242 3.912C45.1962 3.192 45.5802 2.57333 46.0762 2.056C46.5722 1.53333 47.1669 1.128 47.8602 0.839999C48.5535 0.551999 49.3215 0.407999 50.1642 0.407999C51.0069 0.407999 51.7749 0.551999 52.4682 0.839999C53.1669 1.128 53.7642 1.53333 54.2602 2.056C54.7562 2.57333 55.1402 3.192 55.4122 3.912C55.6842 4.62667 55.8202 5.41333 55.8202 6.272ZM54.2282 6.272C54.2282 5.568 54.1322 4.936 53.9402 4.376C53.7482 3.816 53.4762 3.344 53.1242 2.96C52.7722 2.57067 52.3455 2.272 51.8442 2.064C51.3429 1.856 50.7829 1.752 50.1642 1.752C49.5509 1.752 48.9935 1.856 48.4922 2.064C47.9909 2.272 47.5615 2.57067 47.2042 2.96C46.8522 3.344 46.5802 3.816 46.3882 4.376C46.1962 4.936 46.1002 5.568 46.1002 6.272C46.1002 6.976 46.1962 7.608 46.3882 8.168C46.5802 8.72267 46.8522 9.19467 47.2042 9.584C47.5615 9.968 47.9909 10.264 48.4922 10.472C48.9935 10.6747 49.5509 10.776 50.1642 10.776C50.7829 10.776 51.3429 10.6747 51.8442 10.472C52.3455 10.264 52.7722 9.968 53.1242 9.584C53.4762 9.19467 53.7482 8.72267 53.9402 8.168C54.1322 7.608 54.2282 6.976 54.2282 6.272ZM62.4647 10.768C62.9394 10.768 63.3634 10.688 63.7367 10.528C64.11 10.368 64.4247 10.144 64.6807 9.856C64.942 9.568 65.1394 9.224 65.2727 8.824C65.4114 8.424 65.4807 7.984 65.4807 7.504V0.535999H67.0247V7.504C67.0247 8.16533 66.918 8.77867 66.7047 9.344C66.4967 9.90933 66.1954 10.4 65.8007 10.816C65.4114 11.2267 64.934 11.5493 64.3687 11.784C63.8034 12.0187 63.1687 12.136 62.4647 12.136C61.7607 12.136 61.126 12.0187 60.5607 11.784C59.9954 11.5493 59.5154 11.2267 59.1207 10.816C58.726 10.4 58.422 9.90933 58.2087 9.344C58.0007 8.77867 57.8967 8.16533 57.8967 7.504V0.535999H59.4407V7.496C59.4407 7.976 59.5074 8.416 59.6407 8.816C59.7794 9.216 59.9767 9.56 60.2327 9.848C60.494 10.136 60.8114 10.3627 61.1847 10.528C61.5634 10.688 61.99 10.768 62.4647 10.768ZM75.6703 2.328C75.6223 2.408 75.569 2.46933 75.5103 2.512C75.457 2.54933 75.3903 2.568 75.3103 2.568C75.2196 2.568 75.113 2.52267 74.9903 2.432C74.8676 2.34133 74.713 2.24267 74.5263 2.136C74.345 2.024 74.1236 1.92267 73.8623 1.832C73.6063 1.74133 73.2943 1.696 72.9263 1.696C72.5796 1.696 72.273 1.744 72.0063 1.84C71.745 1.93067 71.5236 2.056 71.3423 2.216C71.1663 2.376 71.033 2.56533 70.9423 2.784C70.8516 2.99733 70.8063 3.22933 70.8063 3.48C70.8063 3.8 70.8836 4.06667 71.0383 4.28C71.1983 4.488 71.4063 4.66667 71.6623 4.816C71.9236 4.96533 72.217 5.096 72.5423 5.208C72.873 5.31467 73.209 5.42667 73.5503 5.544C73.897 5.66133 74.233 5.79467 74.5583 5.944C74.889 6.088 75.1823 6.272 75.4383 6.496C75.6996 6.72 75.9076 6.99467 76.0623 7.32C76.2223 7.64533 76.3023 8.04533 76.3023 8.52C76.3023 9.02133 76.217 9.49333 76.0463 9.936C75.8756 10.3733 75.625 10.7547 75.2943 11.08C74.969 11.4053 74.5663 11.6613 74.0863 11.848C73.6116 12.0347 73.0703 12.128 72.4623 12.128C71.7156 12.128 71.0383 11.9947 70.4303 11.728C69.8223 11.456 69.3023 11.0907 68.8703 10.632L69.3183 9.896C69.361 9.83733 69.4116 9.78933 69.4703 9.752C69.5343 9.70933 69.6036 9.688 69.6783 9.688C69.7476 9.688 69.825 9.71733 69.9103 9.776C70.001 9.82933 70.1023 9.89867 70.2143 9.984C70.3263 10.0693 70.4543 10.1627 70.5983 10.264C70.7423 10.3653 70.905 10.4587 71.0863 10.544C71.273 10.6293 71.4836 10.7013 71.7183 10.76C71.953 10.8133 72.217 10.84 72.5103 10.84C72.8783 10.84 73.2063 10.7893 73.4943 10.688C73.7823 10.5867 74.025 10.4453 74.2223 10.264C74.425 10.0773 74.5796 9.856 74.6863 9.6C74.793 9.344 74.8463 9.05867 74.8463 8.744C74.8463 8.39733 74.7663 8.11467 74.6063 7.896C74.4516 7.672 74.2463 7.48533 73.9903 7.336C73.7343 7.18667 73.441 7.06133 73.1103 6.96C72.7796 6.85333 72.4436 6.74667 72.1023 6.64C71.761 6.528 71.425 6.4 71.0943 6.256C70.7636 6.112 70.4703 5.92533 70.2143 5.696C69.9583 5.46667 69.7503 5.18133 69.5903 4.84C69.4356 4.49333 69.3583 4.06667 69.3583 3.56C69.3583 3.15467 69.4356 2.76267 69.5903 2.384C69.7503 2.00533 69.9796 1.66933 70.2783 1.376C70.5823 1.08267 70.953 0.848 71.3903 0.672C71.833 0.495999 72.3396 0.407999 72.9103 0.407999C73.5503 0.407999 74.1316 0.509333 74.6543 0.712C75.1823 0.914666 75.6463 1.208 76.0463 1.592L75.6703 2.328ZM84.9876 6.352C84.4222 6.65067 83.9956 7.01333 83.7076 7.44C83.4249 7.86667 83.2836 8.33067 83.2836 8.832C83.2836 9.17867 83.3476 9.48533 83.4756 9.752C83.6036 10.0133 83.7716 10.2347 83.9796 10.416C84.1876 10.5973 84.4249 10.736 84.6916 10.832C84.9582 10.9227 85.2302 10.968 85.5076 10.968C86.1049 10.968 86.6409 10.8587 87.1156 10.64C87.5956 10.4213 88.0142 10.128 88.3716 9.76L84.9876 6.352ZM92.3796 12H90.9956C90.8409 12 90.7156 11.9813 90.6196 11.944C90.5236 11.9067 90.4196 11.8293 90.3076 11.712L89.1476 10.544C88.6462 11.0293 88.0676 11.416 87.4116 11.704C86.7609 11.9867 86.0436 12.128 85.2596 12.128C84.8329 12.128 84.4142 12.056 84.0036 11.912C83.5982 11.768 83.2329 11.56 82.9076 11.288C82.5822 11.0107 82.3209 10.6747 82.1236 10.28C81.9262 9.88533 81.8276 9.44 81.8276 8.944C81.8276 8.57067 81.8889 8.21867 82.0116 7.888C82.1396 7.552 82.3156 7.24267 82.5396 6.96C82.7636 6.67733 83.0276 6.424 83.3316 6.2C83.6356 5.976 83.9689 5.784 84.3316 5.624C84.0062 5.208 83.7662 4.808 83.6116 4.424C83.4569 4.03467 83.3796 3.632 83.3796 3.216C83.3796 2.82667 83.4489 2.46133 83.5876 2.12C83.7316 1.77867 83.9369 1.48267 84.2036 1.232C84.4702 0.976 84.7929 0.775999 85.1716 0.631999C85.5556 0.482666 85.9849 0.407999 86.4596 0.407999C86.8809 0.407999 87.2649 0.477332 87.6116 0.615999C87.9582 0.749332 88.2569 0.927999 88.5076 1.152C88.7582 1.376 88.9556 1.63733 89.0996 1.936C89.2489 2.22933 89.3342 2.536 89.3556 2.856L88.4676 3.032C88.2916 3.07467 88.1609 2.992 88.0756 2.784C88.0382 2.64533 87.9769 2.50133 87.8916 2.352C87.8116 2.20267 87.7049 2.06667 87.5716 1.944C87.4436 1.82133 87.2862 1.72 87.0996 1.64C86.9182 1.56 86.7049 1.52 86.4596 1.52C86.1929 1.52 85.9502 1.56267 85.7316 1.648C85.5182 1.73333 85.3342 1.85333 85.1796 2.008C85.0302 2.15733 84.9156 2.336 84.8356 2.544C84.7556 2.74667 84.7156 2.968 84.7156 3.208C84.7156 3.39467 84.7369 3.57333 84.7796 3.744C84.8222 3.91467 84.8889 4.088 84.9796 4.264C85.0756 4.44 85.1956 4.61867 85.3396 4.8C85.4836 4.98133 85.6569 5.17333 85.8596 5.376L89.1556 8.728C89.3582 8.36533 89.5209 7.98933 89.6436 7.6C89.7662 7.20533 89.8462 6.81333 89.8836 6.424C89.8942 6.32267 89.9262 6.24267 89.9796 6.184C90.0329 6.12533 90.1076 6.096 90.2036 6.096H91.0756C91.0702 6.70933 90.9742 7.312 90.7876 7.904C90.6009 8.49067 90.3316 9.04267 89.9796 9.56L92.3796 12ZM105.34 1.84H101.628V12H100.084V1.84H96.3636V0.535999H105.34V1.84ZM110.217 6.088C110.665 6.088 111.059 6.03467 111.401 5.928C111.747 5.816 112.035 5.66133 112.265 5.464C112.499 5.26133 112.675 5.02133 112.793 4.744C112.91 4.46667 112.969 4.16 112.969 3.824C112.969 3.14133 112.745 2.62667 112.297 2.28C111.849 1.93333 111.177 1.76 110.281 1.76H108.585V6.088H110.217ZM115.513 12H114.137C113.854 12 113.646 11.8907 113.513 11.672L110.537 7.576C110.446 7.448 110.347 7.35733 110.241 7.304C110.139 7.24533 109.979 7.216 109.761 7.216H108.585V12H107.041V0.535999H110.281C111.006 0.535999 111.633 0.610666 112.161 0.759999C112.689 0.904 113.123 1.11467 113.465 1.392C113.811 1.66933 114.067 2.00533 114.233 2.4C114.398 2.78933 114.481 3.22667 114.481 3.712C114.481 4.11733 114.417 4.496 114.289 4.848C114.161 5.2 113.974 5.51733 113.729 5.8C113.489 6.07733 113.193 6.31467 112.841 6.512C112.494 6.70933 112.099 6.85867 111.657 6.96C111.854 7.072 112.025 7.23467 112.169 7.448L115.513 12ZM124.144 10.736L124.136 12H117.072V0.535999H124.136V1.8H118.624V5.608H123.088V6.824H118.624V10.736H124.144ZM135.594 0.535999V12H134.818C134.696 12 134.592 11.9787 134.506 11.936C134.426 11.8933 134.346 11.8213 134.266 11.72L127.634 3.08C127.645 3.21333 127.653 3.344 127.658 3.472C127.664 3.6 127.666 3.72 127.666 3.832V12H126.306V0.535999H127.106C127.176 0.535999 127.234 0.541333 127.282 0.551999C127.33 0.557333 127.373 0.570666 127.41 0.591999C127.448 0.607999 127.485 0.634666 127.522 0.672C127.56 0.704 127.6 0.746666 127.642 0.799999L134.274 9.432C134.264 9.29333 134.253 9.16 134.242 9.032C134.237 8.89867 134.234 8.77333 134.234 8.656V0.535999H135.594ZM148.461 6.272C148.461 7.13067 148.325 7.912 148.053 8.616C147.781 9.32 147.397 9.92267 146.901 10.424C146.405 10.9253 145.808 11.3147 145.109 11.592C144.416 11.864 143.648 12 142.805 12H138.525V0.535999H142.805C143.648 0.535999 144.416 0.674666 145.109 0.952C145.808 1.224 146.405 1.61333 146.901 2.12C147.397 2.62133 147.781 3.224 148.053 3.928C148.325 4.632 148.461 5.41333 148.461 6.272ZM146.869 6.272C146.869 5.568 146.773 4.93867 146.581 4.384C146.389 3.82933 146.117 3.36 145.765 2.976C145.413 2.592 144.986 2.29867 144.485 2.096C143.984 1.89333 143.424 1.792 142.805 1.792H140.077V10.744H142.805C143.424 10.744 143.984 10.6427 144.485 10.44C144.986 10.2373 145.413 9.94667 145.765 9.568C146.117 9.184 146.389 8.71467 146.581 8.16C146.773 7.60533 146.869 6.976 146.869 6.272ZM154.376 7.432V12H152.824V7.432L148.624 0.535999H149.984C150.123 0.535999 150.232 0.570666 150.312 0.639999C150.392 0.703999 150.461 0.789333 150.52 0.896L153.144 5.352C153.24 5.53867 153.328 5.71467 153.408 5.88C153.488 6.04 153.557 6.20267 153.616 6.368C153.675 6.20267 153.741 6.04 153.816 5.88C153.891 5.71467 153.973 5.53867 154.064 5.352L156.68 0.896C156.728 0.805333 156.795 0.722666 156.88 0.648C156.965 0.573333 157.075 0.535999 157.208 0.535999H158.576L154.376 7.432Z" fill="white"/>
<path d="M18.4033 34.448L16.2913 28.676C16.1873 28.42 16.0793 28.116 15.9673 27.764C15.8553 27.412 15.7433 27.032 15.6313 26.624C15.5273 27.032 15.4193 27.416 15.3073 27.776C15.1953 28.128 15.0873 28.436 14.9833 28.7L12.8833 34.448H18.4033ZM24.1033 41H21.6073C21.3273 41 21.0993 40.932 20.9233 40.796C20.7473 40.652 20.6153 40.476 20.5273 40.268L19.2313 36.728H12.0433L10.7473 40.268C10.6833 40.452 10.5593 40.62 10.3753 40.772C10.1913 40.924 9.96325 41 9.69125 41H7.17125L13.9993 23.648H17.2873L24.1033 41ZM37.2997 36.908C37.4757 36.908 37.6317 36.976 37.7677 37.112L39.0397 38.492C38.3357 39.364 37.4677 40.032 36.4357 40.496C35.4117 40.96 34.1797 41.192 32.7397 41.192C31.4517 41.192 30.2917 40.972 29.2597 40.532C28.2357 40.092 27.3597 39.48 26.6317 38.696C25.9037 37.912 25.3437 36.976 24.9517 35.888C24.5677 34.8 24.3757 33.612 24.3757 32.324C24.3757 31.02 24.5837 29.828 24.9997 28.748C25.4157 27.66 25.9997 26.724 26.7517 25.94C27.5117 25.156 28.4157 24.548 29.4637 24.116C30.5117 23.676 31.6717 23.456 32.9437 23.456C34.2077 23.456 35.3277 23.664 36.3037 24.08C37.2877 24.496 38.1237 25.04 38.8117 25.712L37.7317 27.212C37.6677 27.308 37.5837 27.392 37.4797 27.464C37.3837 27.536 37.2477 27.572 37.0717 27.572C36.9517 27.572 36.8277 27.54 36.6997 27.476C36.5717 27.404 36.4317 27.32 36.2797 27.224C36.1277 27.12 35.9517 27.008 35.7517 26.888C35.5517 26.768 35.3197 26.66 35.0557 26.564C34.7917 26.46 34.4837 26.376 34.1317 26.312C33.7877 26.24 33.3877 26.204 32.9317 26.204C32.1557 26.204 31.4437 26.344 30.7957 26.624C30.1557 26.896 29.6037 27.296 29.1397 27.824C28.6757 28.344 28.3157 28.984 28.0597 29.744C27.8037 30.496 27.6757 31.356 27.6757 32.324C27.6757 33.3 27.8117 34.168 28.0837 34.928C28.3637 35.688 28.7397 36.328 29.2117 36.848C29.6837 37.368 30.2397 37.768 30.8797 38.048C31.5197 38.32 32.2077 38.456 32.9437 38.456C33.3837 38.456 33.7797 38.432 34.1317 38.384C34.4917 38.336 34.8197 38.26 35.1157 38.156C35.4197 38.052 35.7037 37.92 35.9677 37.76C36.2397 37.592 36.5077 37.388 36.7717 37.148C36.8517 37.076 36.9357 37.02 37.0237 36.98C37.1117 36.932 37.2037 36.908 37.2997 36.908ZM52.7919 36.908C52.9679 36.908 53.1239 36.976 53.2599 37.112L54.5319 38.492C53.8279 39.364 52.9599 40.032 51.9279 40.496C50.9039 40.96 49.6719 41.192 48.2319 41.192C46.9439 41.192 45.7839 40.972 44.7519 40.532C43.7279 40.092 42.8519 39.48 42.1239 38.696C41.3959 37.912 40.8359 36.976 40.4439 35.888C40.0599 34.8 39.8679 33.612 39.8679 32.324C39.8679 31.02 40.0759 29.828 40.4919 28.748C40.9079 27.66 41.4919 26.724 42.2439 25.94C43.0039 25.156 43.9079 24.548 44.9559 24.116C46.0039 23.676 47.1639 23.456 48.4359 23.456C49.6999 23.456 50.8199 23.664 51.7959 24.08C52.7799 24.496 53.6159 25.04 54.3039 25.712L53.2239 27.212C53.1599 27.308 53.0759 27.392 52.9719 27.464C52.8759 27.536 52.7399 27.572 52.5639 27.572C52.4439 27.572 52.3199 27.54 52.1919 27.476C52.0639 27.404 51.9239 27.32 51.7719 27.224C51.6199 27.12 51.4439 27.008 51.2439 26.888C51.0439 26.768 50.8119 26.66 50.5479 26.564C50.2839 26.46 49.9759 26.376 49.6239 26.312C49.2799 26.24 48.8799 26.204 48.4239 26.204C47.6479 26.204 46.9359 26.344 46.2879 26.624C45.6479 26.896 45.0959 27.296 44.6319 27.824C44.1679 28.344 43.8079 28.984 43.5519 29.744C43.2959 30.496 43.1679 31.356 43.1679 32.324C43.1679 33.3 43.3039 34.168 43.5759 34.928C43.8559 35.688 44.2319 36.328 44.7039 36.848C45.1759 37.368 45.7319 37.768 46.3719 38.048C47.0119 38.32 47.6999 38.456 48.4359 38.456C48.8759 38.456 49.2719 38.432 49.6239 38.384C49.9839 38.336 50.3119 38.26 50.6079 38.156C50.9119 38.052 51.1959 37.92 51.4599 37.76C51.7319 37.592 51.9999 37.388 52.2639 37.148C52.3439 37.076 52.4279 37.02 52.5159 36.98C52.6039 36.932 52.6959 36.908 52.7919 36.908ZM59.9831 26.216V31.028H66.0551V33.512H59.9831V38.42H67.6871V41H56.7431V23.648H67.6871V26.216H59.9831ZM79.7878 26.804C79.6918 26.972 79.5878 27.096 79.4758 27.176C79.3718 27.248 79.2398 27.284 79.0798 27.284C78.9118 27.284 78.7278 27.224 78.5278 27.104C78.3358 26.976 78.1038 26.836 77.8318 26.684C77.5598 26.532 77.2398 26.396 76.8718 26.276C76.5118 26.148 76.0838 26.084 75.5878 26.084C75.1398 26.084 74.7478 26.14 74.4118 26.252C74.0758 26.356 73.7918 26.504 73.5598 26.696C73.3358 26.888 73.1678 27.12 73.0558 27.392C72.9438 27.656 72.8878 27.948 72.8878 28.268C72.8878 28.676 72.9998 29.016 73.2238 29.288C73.4558 29.56 73.7598 29.792 74.1358 29.984C74.5118 30.176 74.9398 30.348 75.4198 30.5C75.8998 30.652 76.3918 30.816 76.8958 30.992C77.3998 31.16 77.8918 31.36 78.3718 31.592C78.8518 31.816 79.2798 32.104 79.6558 32.456C80.0318 32.8 80.3318 33.224 80.5558 33.728C80.7878 34.232 80.9038 34.844 80.9038 35.564C80.9038 36.348 80.7678 37.084 80.4958 37.772C80.2318 38.452 79.8398 39.048 79.3198 39.56C78.8078 40.064 78.1798 40.464 77.4358 40.76C76.6918 41.048 75.8398 41.192 74.8798 41.192C74.3278 41.192 73.7838 41.136 73.2478 41.024C72.7118 40.92 72.1958 40.768 71.6998 40.568C71.2118 40.368 70.7518 40.128 70.3198 39.848C69.8878 39.568 69.5038 39.256 69.1678 38.912L70.1158 37.364C70.1958 37.252 70.2998 37.16 70.4278 37.088C70.5558 37.008 70.6918 36.968 70.8358 36.968C71.0358 36.968 71.2518 37.052 71.4838 37.22C71.7158 37.38 71.9918 37.56 72.3118 37.76C72.6318 37.96 73.0038 38.144 73.4278 38.312C73.8598 38.472 74.3758 38.552 74.9758 38.552C75.8958 38.552 76.6078 38.336 77.1118 37.904C77.6158 37.464 77.8678 36.836 77.8678 36.02C77.8678 35.564 77.7518 35.192 77.5198 34.904C77.2958 34.616 76.9958 34.376 76.6198 34.184C76.2438 33.984 75.8158 33.816 75.3358 33.68C74.8558 33.544 74.3678 33.396 73.8718 33.236C73.3758 33.076 72.8878 32.884 72.4078 32.66C71.9278 32.436 71.4998 32.144 71.1238 31.784C70.7478 31.424 70.4438 30.976 70.2118 30.44C69.9878 29.896 69.8758 29.228 69.8758 28.436C69.8758 27.804 69.9998 27.188 70.2478 26.588C70.5038 25.988 70.8718 25.456 71.3518 24.992C71.8318 24.528 72.4238 24.156 73.1278 23.876C73.8318 23.596 74.6398 23.456 75.5518 23.456C76.5758 23.456 77.5198 23.616 78.3838 23.936C79.2478 24.256 79.9838 24.704 80.5918 25.28L79.7878 26.804ZM100.268 32.324C100.268 33.596 100.056 34.776 99.6316 35.864C99.2156 36.944 98.6236 37.88 97.8556 38.672C97.0876 39.464 96.1636 40.084 95.0836 40.532C94.0036 40.972 92.8036 41.192 91.4836 41.192C90.1716 41.192 88.9756 40.972 87.8956 40.532C86.8156 40.084 85.8876 39.464 85.1116 38.672C84.3436 37.88 83.7476 36.944 83.3236 35.864C82.8996 34.776 82.6876 33.596 82.6876 32.324C82.6876 31.052 82.8996 29.876 83.3236 28.796C83.7476 27.708 84.3436 26.768 85.1116 25.976C85.8876 25.184 86.8156 24.568 87.8956 24.128C88.9756 23.68 90.1716 23.456 91.4836 23.456C92.3636 23.456 93.1916 23.56 93.9676 23.768C94.7436 23.968 95.4556 24.256 96.1036 24.632C96.7516 25 97.3316 25.452 97.8436 25.988C98.3636 26.516 98.8036 27.108 99.1636 27.764C99.5236 28.42 99.7956 29.132 99.9796 29.9C100.172 30.668 100.268 31.476 100.268 32.324ZM96.9676 32.324C96.9676 31.372 96.8396 30.52 96.5836 29.768C96.3276 29.008 95.9636 28.364 95.4916 27.836C95.0196 27.308 94.4436 26.904 93.7636 26.624C93.0916 26.344 92.3316 26.204 91.4836 26.204C90.6356 26.204 89.8716 26.344 89.1916 26.624C88.5196 26.904 87.9436 27.308 87.4636 27.836C86.9916 28.364 86.6276 29.008 86.3716 29.768C86.1156 30.52 85.9876 31.372 85.9876 32.324C85.9876 33.276 86.1156 34.132 86.3716 34.892C86.6276 35.644 86.9916 36.284 87.4636 36.812C87.9436 37.332 88.5196 37.732 89.1916 38.012C89.8716 38.292 90.6356 38.432 91.4836 38.432C92.3316 38.432 93.0916 38.292 93.7636 38.012C94.4436 37.732 95.0196 37.332 95.4916 36.812C95.9636 36.284 96.3276 35.644 96.5836 34.892C96.8396 34.132 96.9676 33.276 96.9676 32.324ZM108.346 31.904C108.954 31.904 109.482 31.828 109.93 31.676C110.386 31.524 110.758 31.316 111.046 31.052C111.342 30.78 111.562 30.46 111.706 30.092C111.85 29.724 111.922 29.32 111.922 28.88C111.922 28 111.63 27.324 111.046 26.852C110.47 26.38 109.586 26.144 108.394 26.144H106.33V31.904H108.346ZM116.65 41H113.734C113.182 41 112.782 40.784 112.534 40.352L108.886 34.796C108.75 34.588 108.598 34.44 108.43 34.352C108.27 34.264 108.03 34.22 107.71 34.22H106.33V41H103.102V23.648H108.394C109.57 23.648 110.578 23.772 111.418 24.02C112.266 24.26 112.958 24.6 113.494 25.04C114.038 25.48 114.438 26.008 114.694 26.624C114.95 27.232 115.078 27.904 115.078 28.64C115.078 29.224 114.99 29.776 114.814 30.296C114.646 30.816 114.398 31.288 114.07 31.712C113.75 32.136 113.35 32.508 112.87 32.828C112.398 33.148 111.858 33.4 111.25 33.584C111.458 33.704 111.65 33.848 111.826 34.016C112.002 34.176 112.162 34.368 112.306 34.592L116.65 41ZM121.764 41H118.524V23.648H121.764V41ZM128.889 26.216V31.028H134.961V33.512H128.889V38.42H136.593V41H125.649V23.648H136.593V26.216H128.889ZM148.694 26.804C148.598 26.972 148.494 27.096 148.382 27.176C148.278 27.248 148.146 27.284 147.986 27.284C147.818 27.284 147.634 27.224 147.434 27.104C147.242 26.976 147.01 26.836 146.738 26.684C146.466 26.532 146.146 26.396 145.778 26.276C145.418 26.148 144.99 26.084 144.494 26.084C144.046 26.084 143.654 26.14 143.318 26.252C142.982 26.356 142.698 26.504 142.466 26.696C142.242 26.888 142.074 27.12 141.962 27.392C141.85 27.656 141.794 27.948 141.794 28.268C141.794 28.676 141.906 29.016 142.13 29.288C142.362 29.56 142.666 29.792 143.042 29.984C143.418 30.176 143.846 30.348 144.326 30.5C144.806 30.652 145.298 30.816 145.802 30.992C146.306 31.16 146.798 31.36 147.278 31.592C147.758 31.816 148.186 32.104 148.562 32.456C148.938 32.8 149.238 33.224 149.462 33.728C149.694 34.232 149.81 34.844 149.81 35.564C149.81 36.348 149.674 37.084 149.402 37.772C149.138 38.452 148.746 39.048 148.226 39.56C147.714 40.064 147.086 40.464 146.342 40.76C145.598 41.048 144.746 41.192 143.786 41.192C143.234 41.192 142.69 41.136 142.154 41.024C141.618 40.92 141.102 40.768 140.606 40.568C140.118 40.368 139.658 40.128 139.226 39.848C138.794 39.568 138.41 39.256 138.074 38.912L139.022 37.364C139.102 37.252 139.206 37.16 139.334 37.088C139.462 37.008 139.598 36.968 139.742 36.968C139.942 36.968 140.158 37.052 140.39 37.22C140.622 37.38 140.898 37.56 141.218 37.76C141.538 37.96 141.91 38.144 142.334 38.312C142.766 38.472 143.282 38.552 143.882 38.552C144.802 38.552 145.514 38.336 146.018 37.904C146.522 37.464 146.774 36.836 146.774 36.02C146.774 35.564 146.658 35.192 146.426 34.904C146.202 34.616 145.902 34.376 145.526 34.184C145.15 33.984 144.722 33.816 144.242 33.68C143.762 33.544 143.274 33.396 142.778 33.236C142.282 33.076 141.794 32.884 141.314 32.66C140.834 32.436 140.406 32.144 140.03 31.784C139.654 31.424 139.35 30.976 139.118 30.44C138.894 29.896 138.782 29.228 138.782 28.436C138.782 27.804 138.906 27.188 139.154 26.588C139.41 25.988 139.778 25.456 140.258 24.992C140.738 24.528 141.33 24.156 142.034 23.876C142.738 23.596 143.546 23.456 144.458 23.456C145.482 23.456 146.426 23.616 147.29 23.936C148.154 24.256 148.89 24.704 149.498 25.28L148.694 26.804Z" fill="#F16D7F"/>
</svg>
